<svg width="552.85" height="198.67" xmlns="http://www.w3.org/2000/svg">
 <title>rs_school</title>

 <g>
  <title>Layer 1</title>
  <g id="svg_1" data-name="Layer 2">
   <g id="svg_2" data-name="Layer 1">
    <path fill="#969696" id="svg_3" d="m275.36,61.37l26.29,-1.65q0.86,6.41 3.48,9.76q4.28,5.43 12.2,5.43q5.91,0 9.12,-2.77a8.34,8.34 0 0 0 3.2,-6.44a8.18,8.18 0 0 0 -3,-6.22q-3,-2.74 -14.15,-5.19q-18.18,-4.08 -25.93,-10.86a21.84,21.84 0 0 1 -7.81,-17.26a23.44,23.44 0 0 1 4,-13a26.47,26.47 0 0 1 12,-9.64q8,-3.51 22,-3.51q17.14,0 26.14,6.38t10.71,20.28l-26.05,1.52q-1,-6 -4.36,-8.78t-9.2,-2.77c-3.21,0 -5.63,0.69 -7.25,2.05a6.25,6.25 0 0 0 -2.44,5a5,5 0 0 0 2,3.84q1.95,1.77 9.27,3.3q18.12,3.9 26,7.9t11.4,9.91a25.12,25.12 0 0 1 3.57,13.24a28.37,28.37 0 0 1 -4.75,15.86a29.83,29.83 0 0 1 -13.3,11q-8.55,3.75 -21.54,3.75q-22.81,0 -31.6,-8.78t-10,-22.35zm-269.09,29.63l0,-89.47l46.06,0q12.81,0 19.58,2.19a20.93,20.93 0 0 1 10.92,8.14a24.75,24.75 0 0 1 4.17,14.49a24.8,24.8 0 0 1 -3.2,12.84a24.91,24.91 0 0 1 -8.73,8.81a33.63,33.63 0 0 1 -9.7,3.54a27.79,27.79 0 0 1 7.19,3.29a27.79,27.79 0 0 1 4.44,4.66a35.16,35.16 0 0 1 3.85,5.51l13.38,26l-31.23,0l-14.76,-27.37q-2.81,-5.31 -5,-6.9a11.63,11.63 0 0 0 -6.78,-2.07l-2.46,0l0,36.34l-27.73,0zm27.73,-53.24l11.68,0a41,41 0 0 0 7.32,-1.22a7.3,7.3 0 0 0 4.48,-2.81a8.24,8.24 0 0 0 1.74,-5.18a8.23,8.23 0 0 0 -2.75,-6.65q-2.74,-2.32 -10.31,-2.32l-12.16,0l0,18.18zm-34,129.8l26.29,-1.64q0.86,6.41 3.48,9.76q4.23,5.43 12.23,5.43q5.91,0 9.12,-2.78a8.34,8.34 0 0 0 3.2,-6.44a8.2,8.2 0 0 0 -3,-6.22q-3,-2.74 -14.15,-5.18q-18.18,-4.1 -25.93,-10.86a21.87,21.87 0 0 1 -7.81,-17.27a23.49,23.49 0 0 1 4,-13a26.47,26.47 0 0 1 12,-9.64q8,-3.51 22,-3.51q17.14,0 26.14,6.38t10.71,20.28l-26,1.53q-1,-6 -4.36,-8.79t-9.19,-2.74q-4.81,0 -7.25,2a6.25,6.25 0 0 0 -2.44,5a5,5 0 0 0 2,3.85q1.95,1.77 9.27,3.29q18.12,3.9 26,7.9t11.4,9.91a25.15,25.15 0 0 1 3.57,13.24a28.35,28.35 0 0 1 -4.75,15.86a29.83,29.83 0 0 1 -13.3,11q-8.55,3.75 -21.54,3.75q-22.81,0 -31.6,-8.78t-10.09,-22.33zm163,-7.01l24.22,7.32a44.72,44.72 0 0 1 -7.69,17a33.46,33.46 0 0 1 -13,10.31q-7.78,3.47 -19.8,3.47q-14.58,0 -23.82,-4.23t-16,-14.91q-6.72,-10.67 -6.71,-27.31q0,-22.18 11.8,-34.11t33.4,-11.92q16.91,0 26.57,6.84t14.36,21l-24.4,5.43a21,21 0 0 0 -2.68,-6a16,16 0 0 0 -5.67,-4.88a16.31,16.31 0 0 0 -7.51,-1.71q-9.39,0 -14.39,7.56q-3.8,5.61 -3.79,17.61q0,14.86 4.52,20.38t12.69,5.51q7.92,0 12,-4.45t5.9,-12.91zm45.51,-52.83l27.63,0l0,31.28l30.2,0l0,-31.28l27.75,0l0,89.43l-27.75,0l0,-36.15l-30.2,0l0,36.18l-27.63,0l0,-89.46zm102.78,44.77q0,-21.88 12.2,-34.1t34,-12.2q22.32,0 34.4,12t12.11,33.57q0,15.69 -5.28,25.72a37.54,37.54 0 0 1 -15.25,15.61q-10,5.58 -24.86,5.58q-15.12,0 -25,-4.82a37.59,37.59 0 0 1 -16.07,-15.25q-6.26,-10.42 -6.25,-26.11zm27.63,0.13q0,13.55 5,19.46t13.7,5.91q8.91,0 13.79,-5.79t4.88,-20.8q0,-12.63 -5.1,-18.46t-13.82,-5.82a16.78,16.78 0 0 0 -13.37,5.88q-5.07,6 -5.08,19.62z"/>
    <path fill="#969696" id="svg_4" d="m392.28,152.49q0,-21.88 12.2,-34.1t34,-12.2q22.34,0 34.41,12t12.07,33.58q0,15.69 -5.27,25.72a37.6,37.6 0 0 1 -15.25,15.61q-10,5.58 -24.86,5.58q-15.13,0 -25,-4.82a37.67,37.67 0 0 1 -16.08,-15.25q-6.22,-10.43 -6.22,-26.12zm27.64,0.13q0,13.55 5,19.46t13.72,5.92q8.91,0 13.79,-5.79t4.88,-20.8q0,-12.63 -5.09,-18.46t-13.82,-5.82a16.77,16.77 0 0 0 -13.4,5.87q-5.09,6 -5.08,19.62z"/>
    <path fill="#969696" id="svg_5" d="m482.08,107.72l27.64,0l0,67.41l43.13,0l0,22l-70.77,0l0,-89.41z"/>
   </g>
  </g>
 </g>
</svg>